<svg width="1440" height="269" viewBox="0 0 1440 269" fill="none" xmlns="http://www.w3.org/2000/svg">
<path d="M0 0V436.543C0 531.656 58.557 591 165.098 591C270.826 591 329.383 531.656 329.383 436.543V0H217.149V431.666C217.149 473.125 197.63 495.887 165.098 495.887C130.94 495.887 113.048 473.125 113.048 431.666V0H0Z" fill="#F4F4F4"/>
<path d="M372.964 577.18H486.012L507.158 442.234H611.259L632.405 577.18H746.266L633.218 0H485.199L372.964 577.18ZM519.357 360.128L547.822 178.032C551.889 150.392 555.142 126.817 558.395 95.9257H560.835C564.088 126.817 566.528 150.392 570.594 178.032L599.06 360.128H519.357Z" fill="#F4F4F4"/>
<path d="M724.281 95.9257H834.889V577.18H946.31V95.9257H1056.92V0H724.281V95.9257Z" fill="#F4F4F4"/>
<path d="M1090.08 577.18H1208.83L1257.62 391.019C1263.32 365.005 1266.57 343.869 1269.01 321.107H1270.64C1273.89 351.186 1277.14 373.135 1282.02 391.019L1332.45 577.18H1452L1351.96 271.519L1443.05 0H1326.75L1283.65 145.514C1276.33 170.715 1274.7 190.226 1271.45 216.239H1269.82C1265.76 188.6 1264.13 169.902 1257.62 145.514L1216.15 0H1097.4L1190.93 270.706L1090.08 577.18Z" fill="#F4F4F4"/>
</svg>
