<svg width="120" height="164" viewBox="0 0 120 164" fill="none" xmlns="http://www.w3.org/2000/svg">
<path d="M6.61565 110.185L7.50065 103.952C7.50065 103.952 12.7616 98.193 15.2046 95.475C16.0146 97.071 17.1496 99.364 18.2216 101.783C19.2346 104.518 20.0187 107.333 20.5647 110.197C21.2387 113.276 21.8117 116.43 22.2107 118.711H10.0936C8.64265 115.996 7.47365 113.138 6.60365 110.185H6.61565ZM4.25165 61.246L4.99865 60.334L18.6406 71.29L12.9916 73.457H4.25165V61.246ZM4.25165 23.179L16.0057 36.086L16.3736 41.242L4.25165 28.499V23.179ZM4.90765 6.55901H115.749V74.768H103.943V68.436L103.882 68.348L104.599 68.17V67.554H104.148C104.316 67.727 104.477 67.66 104.596 67.541C104.715 67.423 104.782 67.261 104.599 67.094V66.562C104.782 66.394 104.715 66.232 104.596 66.114C104.477 65.995 104.148 65.586 104.148 65.586H103.287V61.381L103.376 60.697C103.48 60.646 103.567 60.567 103.628 60.468C103.688 60.37 103.943 60.14 103.943 60.14V58.101C103.943 58.101 103.7 57.936 103.667 57.86C103.635 57.784 103.587 57.715 103.528 57.657C103.644 57.447 103.709 57.213 103.717 56.973C103.713 56.094 103.287 54.351 103.287 54.351V54.407C102.713 51.249 101.195 48.345 98.9406 46.085C97.5496 44.697 95.9076 43.592 94.1046 42.829V41.297L93.4787 40.664H92.7937V34.402L92.4436 33.768L93.4487 33.465V32.603L92.1147 32.137H90.6707L90.8257 31.755V30.906L90.2527 30.17H90.1696V29.373L89.4677 28.858H89.1507C89.1507 28.858 89.2507 28.537 88.8577 28.423V26.663C89.2497 26.519 89.1977 26.38 89.1057 26.27C89.0137 26.159 88.8867 26.083 88.7457 26.055L89.2906 23.23L89.4167 19.43C89.4187 19.262 89.4546 19.095 89.5226 18.941C89.5906 18.787 89.6876 18.647 89.8096 18.531L90.7336 17.67C90.8486 17.567 90.9417 17.442 91.0067 17.303C91.0727 17.164 91.1087 17.013 91.1147 16.859C91.1147 16.416 91.1777 15.896 91.2027 15.592C91.2177 15.403 91.2787 15.22 91.3797 15.06C91.3797 15.06 91.7976 14.06 91.5576 13.718C91.3946 13.57 91.1816 13.488 90.9626 13.488C90.7416 13.488 90.5297 13.57 90.3667 13.718C90.1257 13.984 90.3667 14.706 90.5437 15.149L90.4306 16.416C90.4076 16.597 90.3456 16.771 90.2496 16.926C90.1536 17.081 90.0247 17.214 89.8727 17.315L88.4417 18.265C88.3437 17.94 88.2027 17.264 88.2027 17.264V16.762C88.2027 16.356 88.2026 15.951 87.7146 16.103C87.2276 16.255 87.3776 16.103 87.1656 16.331C86.9526 16.559 86.9527 16.825 86.9527 17.167C86.9527 17.509 87.2776 17.585 87.5276 17.762C87.7776 17.94 87.6396 18.282 87.7146 18.434L86.4657 19.181C85.8397 20.039 85.3277 20.975 84.9417 21.968C84.8927 22.49 84.9307 23.016 85.0547 23.525C85.2287 23.728 85.2787 23.412 85.4787 23.323C85.6787 23.234 85.4787 22.234 85.3667 21.968L86.2406 20.701L86.5526 24.26L87.3026 26.388C87.1836 26.432 87.0806 26.511 87.0076 26.615C86.9336 26.719 86.8927 26.843 86.8907 26.971V28.541C86.8967 28.654 86.9317 28.763 86.9897 28.858H86.6306L86.2346 29.323V30.17H85.8457L85.5786 30.855V31.704L85.4267 32.137H84.1476L83.6107 32.553V33.439L83.7677 34.105H83.4606C83.3556 36.287 83.3556 38.531 83.4606 40.664H82.9516L82.2997 41.287V42.796C79.8327 43.769 77.6626 45.321 75.9906 47.309C74.3196 49.297 73.1997 51.656 72.7357 54.167L72.6577 54.392C72.4707 55.433 72.4047 56.491 72.4617 57.547V57.759L72.5966 57.835C72.5416 57.927 72.5107 58.031 72.4617 58.139V60.178C72.5067 60.278 72.5307 60.376 72.5777 60.464C72.6227 60.553 72.6907 60.628 72.7737 60.684C72.5357 60.803 72.3347 60.984 72.1897 61.206C72.0457 61.429 71.9627 61.686 71.9507 61.951C71.9507 63.306 71.9507 64.636 72.0517 65.954C71.8877 65.957 71.7317 66.023 71.6167 66.139C71.5007 66.255 71.4336 66.411 71.1496 66.574V67.106C71.4306 67.275 71.4977 67.435 71.6167 67.554C71.7347 67.673 72.0647 67.554 72.0647 67.554H71.8056V68.183L72.3297 68.348L72.4617 68.449V74.197C70.1527 75.092 67.8347 76.025 65.5087 76.996C63.7767 77.731 62.0707 78.491 60.3507 79.264L4.90765 7.129V6.55901ZM103.943 75.424H111.813V76.736H103.943V75.424ZM113.154 85.262H99.5367C99.5177 84.518 99.5177 84.147 99.5367 83.951H113.255L113.154 85.262ZM110.502 85.918H111.814V91.821H110.502V85.918ZM103.943 91.834V85.918H105.911V91.821L103.943 91.834ZM113.192 93.788H103.059C103.147 93.579 103.223 93.401 103.299 93.133H113.129L113.192 93.788ZM111.814 105.32C111.463 105.38 111.119 105.472 110.783 105.594H110.502V97.068H111.814V105.32ZM105.3 126.79C103.848 126.121 102.217 125.939 100.652 126.271C99.4647 126.652 98.3607 127.253 97.3967 128.044C96.2437 128.766 95.4587 128.044 94.4957 127.334C93.4347 126.625 92.1537 126.319 90.8867 126.473C89.5497 126.681 88.3387 127.382 87.4917 128.436C87.1117 128.88 86.2247 130.197 86.4017 130.818C86.7697 131.907 88.3657 129.957 88.9357 129.551C89.4227 129.217 89.9797 129 90.5647 128.919C91.1497 128.838 91.7457 128.893 92.3047 129.082C92.7447 129.245 93.1697 129.449 93.5717 129.69C94.2807 130.096 95.5217 131.249 96.3457 131.198C97.1687 131.147 97.2827 130.324 97.8277 130.286C98.3727 130.248 99.0937 131.185 99.3347 131.692C99.4457 132.031 99.5007 132.386 99.4987 132.743C98.9427 133.212 98.3726 133.681 97.8026 134.124C90.4046 132.376 82.6027 132.452 75.0027 132.705C75.5097 132.25 75.9526 131.705 76.4716 131.249C77.5486 130.311 78.8907 130.691 79.9807 129.982C81.0697 129.273 80.9307 127.753 81.7287 126.778C82.4567 126.142 83.3247 125.686 84.2617 125.448C86.1107 124.662 87.6557 122.914 89.6707 122.914C91.1907 123.088 92.6326 123.68 93.8376 124.624C95.1036 125.41 96.7756 126.068 98.1566 125.422C100.209 124.485 100.69 121.166 102.932 120.887C103.93 120.733 104.952 120.927 105.823 121.436C106.695 121.947 107.365 122.741 107.72 123.687C106.935 124.7 106.149 125.764 105.3 126.79ZM84.2836 142.541C82.0416 141.781 78.5207 141.933 76.6837 141.845C69.7937 141.49 62.8946 141.304 55.9866 141.287C53.2006 141.287 50.3637 141.427 47.5387 141.452V140.451V138.387H58.0266L57.6716 133.839C60.7246 133.614 63.7936 133.87 66.7666 134.599C66.6726 134.701 66.6006 134.821 66.5556 134.95C66.5096 135.08 66.4906 135.219 66.4996 135.356C66.5096 135.493 66.5476 135.628 66.6106 135.751C66.6736 135.873 66.7616 135.981 66.8676 136.069C67.3196 136.408 67.8727 136.587 68.4387 136.576C71.3387 136.803 74.2647 136.271 77.1647 136.411C80.8807 136.768 84.5177 137.704 87.9447 139.185C88.3497 139.337 88.7676 139.476 89.2106 139.603L84.2836 142.541ZM60.2716 156.999L40.4366 145.093C41.8546 145.409 43.2227 145.688 44.4137 146.005C47.7327 146.871 51.1247 147.431 54.5466 147.677C57.7596 147.797 60.9517 148.251 64.0717 149.032C66.0647 149.52 67.9737 150.306 69.7337 151.363L60.2716 156.999ZM33.8967 136.003L32.6246 127.227L37.1136 123.958H41.5906L43.2826 139.043H40.1287C37.8137 137.822 33.9466 135.977 33.9466 135.977L33.8967 136.003ZM33.0897 112.719C33.0897 112.719 35.6227 109.691 37.2826 107.513C37.7007 108.564 38.1437 109.767 38.4097 110.641C39.0957 113.396 39.4947 116.215 39.6007 119.052C39.6007 119.711 39.7017 121.104 39.7527 121.991H33.6726C33.1806 121.007 32.7577 119.991 32.4057 118.951C32.4057 118.558 33.1406 112.693 33.1406 112.693L33.0897 112.719ZM25.4897 90.311L34.1026 87.879C36.5346 87.981 38.9796 88.044 38.9796 88.044L45.6166 91.071C45.6166 91.071 44.1597 91.793 42.8297 92.477H23.6026L25.4897 90.311ZM22.6157 47.372V42.901L34.5097 55.947L35.3076 60.735L22.6157 47.372ZM39.6687 65.409V61.672L46.2797 68.905L46.7996 72.857L39.6687 65.409ZM40.8857 71.481C42.3167 73.622 44.0777 76.333 44.0777 76.333L43.7226 79.359H41.0877L30.4867 70.24V61.525L40.8857 71.481ZM51.6526 97.118C47.2196 98.464 42.9146 100.23 38.7896 102.394C34.9597 104.434 31.3976 106.978 28.1896 109.965L27.8626 110.293V118.711H24.5837V117.449C24.6107 114.443 24.3807 111.439 23.8937 108.476L24.2206 104.892L24.6196 100.197C24.6196 100.197 32.0856 98.065 34.6996 97.068L51.6526 97.118ZM57.4977 84.105L55.4457 81.951L55.7496 79.304L57.7387 81.495L57.4977 84.105ZM60.9936 100.937L58.6887 101.659H46.2247C48.7577 100.67 51.3677 99.784 53.6977 99.125L56.9277 100.076L60.9936 100.937ZM62.6106 89.171L60.2547 86.638L60.5587 84.295L62.6236 86.549L62.6106 89.171ZM69.0367 108.217H60.4996C62.4506 107.47 64.2997 106.811 65.9207 106.304L67.8967 106.571L69.0367 108.217ZM69.8376 87.702C69.3396 87.985 68.9456 88.155 68.5266 88.183V84.606H69.8376V87.702ZM72.6967 102.409L74.4286 105.145V106.906H72.5927L69.1817 104.068V99.167L72.6967 102.409ZM73.2047 98.48C73.0617 98.68 72.9296 98.887 72.8116 99.102C72.6606 99.359 72.5617 99.643 72.5197 99.937L72.4187 99.836C72.2917 99.519 72.1277 99.203 72.0007 98.886C71.7827 98.202 71.6716 97.489 71.6716 96.771L73.2047 98.48ZM61.2976 125.434C61.3866 123.433 62.8556 122.141 63.9576 120.647C64.3906 119.993 65.0047 119.481 65.7247 119.173C66.4447 118.865 67.2397 118.774 68.0107 118.912C68.3867 119.042 68.7866 119.083 69.1806 119.03C69.5746 118.977 69.9506 118.833 70.2776 118.608C71.1266 117.809 70.9497 116.695 72.3297 116.442C72.8917 116.353 73.4656 116.353 74.0276 116.442C74.5116 116.466 74.9867 116.591 75.4207 116.809C77.0927 117.759 76.5227 119.811 75.6987 121.09C75.3697 121.597 74.9386 122.192 75.1046 122.724C75.3576 123.535 76.3707 123.003 76.6237 124.079C76.7307 124.388 76.7566 124.72 76.6996 125.042C76.5296 125.477 76.3306 125.9 76.1046 126.309C74.3056 125.835 72.4187 125.809 70.6077 126.233C68.9337 126.683 67.4027 127.555 66.1617 128.766C64.4767 128.31 62.7547 127.904 61.0947 127.601C61.2587 126.883 61.3016 126.141 61.2216 125.41L61.2976 125.434ZM43.6036 116.86V121.991H42.2916V117.809C42.5386 117.531 42.9817 117.215 43.5777 116.834L43.6036 116.86ZM42.2916 115.099V112.313C42.2596 111.678 42.1577 111.049 41.9877 110.438C41.8237 109.754 41.5956 108.994 41.3546 108.234C42.0636 107.271 43.2416 105.701 43.2416 105.701L52.5266 105.067L64.7617 104.118C60.7267 105.416 56.7897 107.004 52.9827 108.867C49.8157 110.489 46.6486 112.325 44.2926 113.782L42.2916 115.099ZM52.9356 136.42H52.0587L49.3266 134.808L48.8367 127.706L51.1827 125.27H51.6077C51.6727 125.27 52.5487 133.429 52.8577 136.381L52.9356 136.42ZM53.6716 123.302H48.4786L46.8826 121.871V117.514L49.5297 114.842C49.5297 114.842 55.0776 111.472 55.3186 111.472C55.5596 111.472 66.7177 109.99 66.7177 109.99C65.1347 110.624 63.5386 111.257 62.1326 112.017C59.2826 113.418 56.5577 115.063 53.9887 116.931L53.5457 117.274L53.6716 123.302ZM77.9586 116.593C77.8056 115.413 77.2567 114.318 76.4017 113.491C75.7037 112.845 74.8556 112.756 74.6156 112.122C75.5146 111.869 76.4136 111.653 77.2626 111.502L78.3647 110.235V102.977V102.876C78.6637 102.218 79.0657 101.61 79.5547 101.078C79.7077 100.883 79.9156 100.737 80.1496 100.659C80.3556 100.634 80.5646 100.661 80.7576 100.735C81.2646 100.864 81.7196 101.146 82.0596 101.543C82.3996 101.939 82.6087 102.431 82.6577 102.952C82.7847 103.965 82.6576 105.08 83.4566 105.852C84.2536 106.625 86.1536 106.524 86.8506 107.626C87.5476 108.728 86.6226 109.982 87.0786 111.059C87.3066 111.44 87.4166 111.881 87.3956 112.325C87.2936 112.857 86.7497 113.161 86.2937 113.453C85.4307 113.996 84.7036 114.727 84.1656 115.593C84.0646 115.77 83.9627 115.985 84.0647 116.163C84.1657 116.34 84.6596 116.29 84.9256 116.163C85.8246 115.492 86.6476 114.719 87.5726 114.085C88.5386 113.509 89.5617 113.033 90.6257 112.667C91.7067 112.071 92.8726 111.644 94.0836 111.4C95.7806 111.274 97.2116 112.528 98.5036 113.617C99.3516 114.343 100.321 114.913 101.367 115.301C102.203 115.593 103.342 115.644 103.773 116.569C103.914 116.975 103.969 117.406 103.938 117.835C102.765 117.615 101.551 117.765 100.467 118.266C98.7986 119.107 97.4217 120.432 96.5157 122.065C95.5567 121.074 94.3737 120.327 93.0677 119.887C91.7607 119.446 90.3677 119.324 89.0047 119.532C88.0637 119.688 87.1757 120.073 86.4207 120.655C85.6647 121.236 85.0637 121.994 84.6727 122.863C83.9887 124.029 82.5316 123.978 81.3026 124.409C81.2626 124.208 81.1807 124.018 81.0627 123.851C80.8367 123.567 80.5447 123.341 80.2137 123.193C79.6307 122.889 79.0486 122.597 78.4406 122.344C77.8326 122.091 76.9456 121.964 76.9196 121.28C76.9196 120.849 77.1866 120.672 77.3766 120.355C77.5676 119.976 77.7046 119.57 77.7816 119.152C77.9906 118.316 78.0506 117.45 77.9586 116.593ZM105.617 98.93C105.413 98.28 105.137 97.655 104.793 97.068H106.567V103.933L105.82 103.73C106.165 102.139 106.095 100.486 105.617 98.93ZM96.7287 65.966V62.307H97.3846V65.941L96.7287 65.966ZM96.0726 77.772V68.866H96.7287V78.126C96.3497 77.991 96.1046 77.873 96.0726 77.772ZM72.4597 89.55C72.9747 89.146 73.3546 88.593 73.5486 87.967C74.1316 86.08 74.5876 84.724 76.9556 85.307C77.7006 85.528 78.4176 85.83 79.0966 86.207C79.3416 86.373 79.6396 86.441 79.9326 86.397C80.0376 86.351 80.1326 86.284 80.2106 86.199C80.2876 86.115 80.3466 86.014 80.3826 85.906C80.4186 85.797 80.4307 85.681 80.4187 85.567C80.4067 85.453 80.3707 85.343 80.3127 85.244C80.0647 84.851 79.6887 84.556 79.2487 84.408C78.7937 84.185 78.3067 84.031 77.8047 83.952C77.7217 83.946 77.6396 83.925 77.5636 83.889C77.0826 83.585 78.5776 81.482 78.9066 81.229C79.6626 80.76 80.5566 80.563 81.4406 80.671H83.4286C83.9696 80.727 84.5107 80.568 84.9357 80.228C84.9567 80.265 84.9827 80.299 85.0117 80.329C85.4937 80.127 90.8387 79.253 90.8257 80.139V80.532C89.5207 80.806 88.3566 81.538 87.5446 82.597C87.4326 82.724 87.3617 82.883 87.3427 83.053C87.3567 83.155 87.3986 83.251 87.4626 83.331C87.5276 83.412 87.6137 83.473 87.7097 83.508C87.9667 83.589 88.2406 83.6 88.5036 83.54C88.7666 83.48 89.0087 83.351 89.2047 83.167C89.6047 82.763 90.0276 82.382 90.4716 82.027C91.2896 81.589 92.2196 81.403 93.1436 81.495C95.0306 81.495 95.2596 82.382 95.1326 84.028C95.0036 85.198 95.1076 86.381 95.4366 87.511C95.6076 88.075 95.8996 88.594 96.2946 89.032C96.6886 89.47 97.1737 89.815 97.7157 90.045C98.3117 90.26 99.0966 90.412 99.2236 91.045C99.2486 91.259 99.2226 91.477 99.1476 91.679C98.7306 92.752 98.2356 93.794 97.6656 94.795C97.6086 94.913 97.5367 95.024 97.4507 95.124C97.2797 95.237 97.0836 95.306 96.8806 95.326C95.7266 95.565 94.6536 96.096 93.7666 96.871C92.8786 97.646 92.2066 98.636 91.8136 99.747C91.7736 99.814 91.7527 99.891 91.7527 99.969C91.7527 100.047 91.7736 100.123 91.8136 100.19C91.9656 100.329 92.2067 100.19 92.3707 100.064C93.1457 99.418 93.9966 98.869 94.9046 98.429C95.5686 98.054 96.3407 97.911 97.0957 98.024C97.6137 98.252 98.1586 98.414 98.7166 98.505C99.3506 98.505 99.9836 98.037 100.554 98.417C101.165 98.935 101.636 99.599 101.921 100.348C102.207 101.096 102.299 101.905 102.188 102.698C101.96 104.56 101.58 105.776 103.455 106.764C105.118 107.445 106.446 108.764 107.134 110.435C107.117 110.457 107.119 110.453 107.102 110.476C105.124 110.237 103.129 110.777 101.542 111.983L95.5627 108.183C95.4237 108.259 95.3357 108.006 95.3737 107.853C95.6517 106.79 96.8547 106.587 97.5387 105.941C97.5807 105.905 97.6137 105.86 97.6357 105.81C97.6567 105.759 97.6676 105.704 97.6656 105.65C97.6656 105.485 97.4127 105.434 97.2477 105.434C94.5247 105.358 92.2577 109.5 90.5977 106.296C90.2267 105.574 89.6717 104.962 88.9897 104.522C88.2787 104.095 87.4716 103.855 86.6436 103.824C85.8156 103.794 84.9926 103.973 84.2516 104.345C84.7886 102.769 84.8286 101.067 84.3656 99.468C84.1716 98.908 83.8896 98.382 83.5296 97.911C83.7956 95.744 83.3657 92.844 85.9877 92.375C86.3287 92.299 86.7097 92.236 86.8867 91.932C86.9977 91.686 87.0316 91.412 86.9886 91.147C86.9856 90.583 87.1456 90.032 87.4476 89.557C87.7506 89.082 88.1826 88.704 88.6936 88.468C89.2046 88.232 89.7726 88.147 90.3306 88.225C90.8876 88.302 91.4117 88.538 91.8387 88.904C92.0547 89.082 92.3837 89.297 92.5607 89.07C92.5737 89.01 92.5737 88.95 92.5607 88.892C92.7637 87.701 91.6237 86.688 90.5847 86.359C89.9267 86.182 89.2347 86.172 88.5717 86.329C87.9087 86.486 87.2946 86.805 86.7856 87.258C85.8756 88.182 85.1337 89.258 84.5947 90.437C84.4977 90.638 84.3546 90.811 84.1756 90.944C83.7196 91.235 83.1376 90.944 82.6176 90.83C81.9146 90.721 81.1956 90.795 80.5296 91.046C79.8646 91.297 79.2747 91.715 78.8177 92.261C77.9417 93.203 77.3636 94.385 77.1586 95.656C75.9706 95.981 74.8847 96.605 74.0047 97.467L71.4716 94.123C71.4896 92.87 71.6817 91.625 72.0417 90.425C72.1127 90.105 72.2557 89.806 72.4597 89.55ZM74.5336 75.681C74.9226 75.681 75.3016 75.797 75.6246 76.013C75.9476 76.228 76.1987 76.535 76.3477 76.893C76.4967 77.252 76.5357 77.647 76.4597 78.027C76.3837 78.408 76.1966 78.759 75.9216 79.033C75.6476 79.308 75.2977 79.495 74.9167 79.57C74.5367 79.646 74.1417 79.607 73.7827 79.458C73.4237 79.31 73.1167 79.058 72.9017 78.736C72.6857 78.412 72.5706 78.033 72.5706 77.644C72.5736 77.383 72.6286 77.125 72.7336 76.884C72.8366 76.644 72.9876 76.427 73.1756 76.245C73.3646 76.064 73.5876 75.922 73.8316 75.828C74.0756 75.733 74.3357 75.687 74.5977 75.694L74.5336 75.681ZM73.7737 66.242V63.8C73.7217 63.601 73.7596 63.403 73.8356 63.219C73.9116 63.034 74.0236 62.867 74.1656 62.726C74.3076 62.586 74.4756 62.475 74.6606 62.401C74.8456 62.326 75.0437 62.29 75.2437 62.307H75.7406V66.242H73.7737ZM75.7406 68.866H77.7086V74.059L75.7406 73.324V68.866ZM81.6436 68.853V75.579L79.6756 74.857V68.866L81.6436 68.853ZM79.0197 66.229V62.307H81.6436V66.242L79.0197 66.229ZM85.5786 68.704V77.687L83.6107 76.889V68.634L85.5786 68.704ZM84.2666 66.214V62.307H86.8907V66.242L84.2666 66.214ZM88.2027 68.853V77.137L86.8907 77.39V68.866L88.2027 68.853ZM90.8257 65.942V62.307H92.1376V65.968L90.8257 65.942ZM92.1376 68.866H92.7937V76.736H92.1376V68.866ZM92.7677 54.437H93.7227C93.7057 55.312 93.7356 56.188 93.8136 57.06H92.1257C92.1937 53.357 91.7526 49.663 90.8156 46.08L91.0636 46.339C92.1396 47.517 92.9006 48.949 93.2746 50.502H92.1967L92.7677 54.437ZM90.8257 59.684H73.7737V59.028H90.8257V59.684ZM83.7216 45.058C81.5886 47.356 80.1867 51.55 80.0927 56.475L78.0186 56.687L77.7007 55.862C77.7007 55.391 77.8067 54.908 77.8777 54.437H78.7027L80.0686 50.502H79.0206C79.1846 50.101 79.3506 49.7 79.5506 49.323C80.2136 48.103 81.0827 47.007 82.1187 46.083C82.6357 45.688 83.1926 45.349 83.7796 45.07L83.7216 45.058ZM84.9227 41.308V42.631H83.6107V41.319L84.9227 41.308ZM85.5786 39.352H84.9227V35.417H85.5786V39.352ZM82.9077 50.121C83.3047 48.735 83.8916 47.411 84.6526 46.186C85.0066 45.635 85.3867 45.11 85.7807 44.586C84.5407 48.624 83.9737 52.838 84.1017 57.06H82.2657C82.1807 56.188 82.1497 55.312 82.1727 54.437H83.3546L84.0367 50.056L82.9077 50.121ZM89.5137 42.631H88.8577V41.319H89.5137V42.631ZM89.5137 39.352H88.8577V35.417H89.5137V39.352ZM86.8907 44.636C87.1717 44.582 87.2067 44.534 87.2507 44.497C87.3137 44.459 87.3867 44.439 87.4597 44.439C87.5337 44.439 87.6056 44.459 87.6696 44.497C88.1676 46.324 88.6317 50.502 88.6317 50.502H86.8907V54.437H88.8577V57.06H85.3506C85.3636 50.678 86.2877 46.536 86.8907 44.649V44.636ZM86.8907 35.417H87.5466V39.352H86.8907V35.417ZM87.5466 42.631H86.2346V41.319H87.5466V42.631ZM75.6057 50.513C76.9127 48.004 79.0076 45.993 81.5686 44.79C79.7846 46.172 78.3277 47.928 77.2977 49.935C76.2667 51.942 75.6897 54.15 75.6057 56.404H74.2937C74.2937 56.404 74.1867 56.035 74.0797 55.629C73.9727 55.224 74.1626 54.866 74.2346 54.437H74.9267L76.3096 50.454L75.6057 50.513ZM64.2307 90.931L64.5477 88.677L65.9026 90.172C65.8906 90.374 65.8906 90.577 65.9026 90.779V92.452C65.8966 92.544 65.8966 92.637 65.9026 92.731L64.2307 90.931ZM66.6707 96.07L67.2146 97.869V100.25L66.5726 101.162L61.2006 96.412H61.3116V90.801L66.6707 96.07ZM50.1617 76.657V73.44L53.4176 76.999L53.2016 79.849L50.1617 76.657ZM54.7097 85.105C55.5257 86.338 56.2326 87.639 56.8246 88.993L56.7356 92.199L56.2296 92.717L50.1617 87.499V80.748L54.7097 85.105ZM20.6487 58.891L15.3137 57.37L6.87565 50.091V39.222L14.2667 46.315C15.9617 48.384 20.6487 54.205 20.6487 54.205V58.891ZM34.9947 83.912C32.9297 84.584 30.6757 85.344 28.4337 86.129C24.3467 87.493 20.3596 89.14 16.5016 91.056C13.1676 92.971 9.95265 95.086 6.87565 97.389V94.704L8.14165 86.42L12.8286 83.951L34.9947 83.912ZM29.0907 138.387L26.9517 137.122C23.0717 134.775 19.5547 131.876 16.5107 128.516L16.1567 125.58L19.1817 123.302H27.8626V123.669C28.2546 126.073 29.0147 131.262 29.1287 133.223C29.1287 134.717 29.3686 136.552 29.4576 138.387H29.0907ZM24.9267 142.977L59.9996 163.966L95.0737 142.977C102.566 138.461 108.766 132.095 113.076 124.495C117.386 116.894 119.662 105.782 119.684 97.049V0H0.31665V97.049C0.33865 105.782 2.61365 116.894 6.92465 124.495C11.2347 132.095 17.4347 138.461 24.9267 142.977Z" fill="white"/>
<path d="M50.2122 42.2983L59.0022 35.9143L67.8062 42.2983L64.4362 31.9623L73.2392 25.5783H62.3722L59.0022 15.2433L55.6462 25.5783H44.7782L53.5692 31.9623L50.2122 42.2983Z" fill="white"/>
<path d="M79.0302 159.907H77.7592V163.185H76.9352V159.907H75.6172V159.183H79.0302V159.907Z" fill="white"/>
<path d="M83.3675 163.185V160.484L82.0255 162.096H81.8785L80.5425 160.484V163.185H79.7185V159.183H80.4605L81.9555 160.966L83.4495 159.183H84.1915V163.185H83.3675Z" fill="white"/>
</svg>
